<?xml version="1.0" encoding="utf-8"?>
<svg version="1.1" id="Layer_1" xmlns="http://www.w3.org/2000/svg" xmlns:xlink="http://www.w3.org/1999/xlink" x="0px" y="0px"
	 viewBox="0 0 1920 791" style="enable-background:new 0 0 1920 1000;" xml:space="preserve">
<style type="text/css">
	.st0{fill:#7E57FF;}
</style>
<path class="st0" d="M994.6,602.1c-29.7-1.5-54,22.9-52.5,52.5c1.3,25.4,21.9,46,47.3,47.3c29.7,1.5,54-22.9,52.5-52.5
	C1040.6,624,1020,603.4,994.6,602.1z M994.3,687.2c-21.3,1.3-38.9-16.2-37.5-37.5c1.1-17.6,15.4-31.8,32.9-32.9
	c21.3-1.3,38.9,16.2,37.5,37.5C1026.1,671.9,1011.9,686.1,994.3,687.2z"/>
<path class="st0" d="M1631.2,195.5c-29.7-1.5-54,22.9-52.5,52.5c1.3,25.4,21.9,46,47.3,47.3c29.7,1.5,54-22.9,52.5-52.5
	C1677.2,217.5,1656.6,196.8,1631.2,195.5z M1630.9,280.7c-21.3,1.3-38.9-16.2-37.5-37.5c1.1-17.6,15.4-31.8,32.9-32.9
	c21.3-1.3,38.9,16.2,37.5,37.5C1662.7,265.3,1648.4,279.6,1630.9,280.7z"/>
<path class="st0" d="M1242,624l188-204l468,371h-445L1242,624z"/>
<path class="st0" d="M1339,386c76.8,0,139,62.2,139,139s-62.2,139-139,139s-139-62.2-139-139S1262.2,386,1339,386z"/>
<path class="st0" d="M-8.7,322.1l267.9,344.3c20.4,26.2,15.6,63.9-10.5,84.2l-328.3,255.3l-304.6-391.6L-8.7,322.1z"/>
<path class="st0" d="M255.9,124.3l17.4,64.8c1,3.9,6.2,4.7,8.4,1.3l24.3-37.9c1.4-2.2,0.8-5-1.4-6.4l-41.7-26.8
	C259.3,116.9,254.8,120.2,255.9,124.3z"/>
</svg>
